<svg width="77" height="52" viewBox="0 0 77 52" fill="none" xmlns="http://www.w3.org/2000/svg">
<path d="M76.375 52H0.359375V0H76.375V52Z" stroke="#E5E7EB"/>
<path d="M47.3594 24H29.3594V8H47.3594V24Z" stroke="#E5E7EB"/>
<g clip-path="url(#clip0_10_558)">
<path d="M38.8594 15.5V8.51875C38.8594 8.2375 39.0781 8 39.3594 8C43.225 8 46.3594 11.1344 46.3594 15C46.3594 15.2812 46.1219 15.5 45.8406 15.5H38.8594ZM30.3594 16.5C30.3594 12.7094 33.175 9.57187 36.8281 9.07187C37.1156 9.03125 37.3594 9.2625 37.3594 9.55313V17L42.25 21.8906C42.4594 22.1 42.4437 22.4438 42.2031 22.6125C40.9781 23.4875 39.4781 24 37.8594 24C33.7188 24 30.3594 20.6438 30.3594 16.5ZM46.8094 17C47.1 17 47.3281 17.2438 47.2906 17.5312C47.05 19.2781 46.2094 20.8312 44.9812 21.9781C44.7937 22.1531 44.5 22.1406 44.3188 21.9563L39.3594 17H46.8094Z" fill="#A3A3A3"/>
</g>
<path d="M14.4753 40H13.3674L16.5719 31.2727H17.6628L20.8674 40H19.7594L17.1515 32.6534H17.0833L14.4753 40ZM14.8844 36.5909H19.3503V37.5284H14.8844V36.5909ZM23.0961 36.0625V40H22.0904V33.4545H23.062V34.4773H23.1472C23.3006 34.1449 23.5336 33.8778 23.8461 33.6761C24.1586 33.4716 24.562 33.3693 25.0563 33.3693C25.4995 33.3693 25.8873 33.4602 26.2196 33.642C26.552 33.821 26.8105 34.0938 26.9952 34.4602C27.1799 34.8239 27.2722 35.2841 27.2722 35.8409V40H26.2665V35.9091C26.2665 35.3949 26.133 34.9943 25.8659 34.7074C25.5989 34.4176 25.2324 34.2727 24.7665 34.2727C24.4455 34.2727 24.1586 34.3423 23.9057 34.4815C23.6557 34.6207 23.4583 34.8239 23.3134 35.0909C23.1685 35.358 23.0961 35.6818 23.0961 36.0625ZM31.036 40.1534C30.6213 40.1534 30.2449 40.0753 29.9068 39.919C29.5687 39.7599 29.3002 39.5312 29.1014 39.233C28.9025 38.9318 28.8031 38.5682 28.8031 38.142C28.8031 37.767 28.877 37.4631 29.0247 37.2301C29.1724 36.9943 29.3699 36.8097 29.617 36.6761C29.8642 36.5426 30.1369 36.4432 30.4352 36.3778C30.7363 36.3097 31.0389 36.2557 31.3429 36.2159C31.7406 36.1648 32.063 36.1264 32.3102 36.1009C32.5602 36.0724 32.742 36.0256 32.8556 35.9602C32.9721 35.8949 33.0304 35.7812 33.0304 35.6193V35.5852C33.0304 35.1648 32.9153 34.8381 32.6852 34.6051C32.4579 34.3722 32.1127 34.2557 31.6497 34.2557C31.1696 34.2557 30.7931 34.3608 30.5204 34.571C30.2477 34.7812 30.0559 35.0057 29.9451 35.2443L28.9906 34.9034C29.161 34.5057 29.3883 34.196 29.6724 33.9744C29.9593 33.75 30.2718 33.5937 30.6099 33.5057C30.9508 33.4148 31.286 33.3693 31.6156 33.3693C31.8258 33.3693 32.0673 33.3949 32.34 33.446C32.6156 33.4943 32.8812 33.5952 33.1369 33.7486C33.3954 33.902 33.6099 34.1335 33.7804 34.4432C33.9508 34.7528 34.036 35.1676 34.036 35.6875V40H33.0304V39.1136H32.9792C32.911 39.2557 32.7974 39.4077 32.6383 39.5696C32.4792 39.7315 32.2676 39.8693 32.0034 39.983C31.7392 40.0966 31.4167 40.1534 31.036 40.1534ZM31.1895 39.25C31.5872 39.25 31.9224 39.1719 32.1951 39.0156C32.4707 38.8594 32.6781 38.6577 32.8173 38.4105C32.9593 38.1634 33.0304 37.9034 33.0304 37.6307V36.7102C32.9877 36.7614 32.894 36.8082 32.7491 36.8509C32.6071 36.8906 32.4423 36.9261 32.2548 36.9574C32.0701 36.9858 31.8897 37.0114 31.7136 37.0341C31.5403 37.054 31.3997 37.071 31.2917 37.0852C31.0304 37.1193 30.786 37.1747 30.5588 37.2514C30.3343 37.3253 30.1525 37.4375 30.0133 37.5881C29.877 37.7358 29.8088 37.9375 29.8088 38.1932C29.8088 38.5426 29.938 38.8068 30.1966 38.9858C30.4579 39.1619 30.7889 39.25 31.1895 39.25ZM36.8773 31.2727V40H35.8716V31.2727H36.8773ZM39.367 42.4545C39.1966 42.4545 39.0446 42.4403 38.911 42.4119C38.7775 42.3864 38.6852 42.3608 38.6341 42.3352L38.8897 41.4489C39.1341 41.5114 39.35 41.5341 39.5375 41.517C39.725 41.5 39.8912 41.4162 40.036 41.2656C40.1838 41.1179 40.3187 40.8778 40.4409 40.5455L40.6284 40.0341L38.2079 33.4545H39.2988L41.1056 38.6705H41.1738L42.9806 33.4545H44.0716L41.2931 40.9545C41.1681 41.2926 41.0133 41.5724 40.8287 41.794C40.644 42.0185 40.4295 42.1847 40.1852 42.2926C39.9437 42.4006 39.671 42.4545 39.367 42.4545ZM48.2456 33.4545V34.3068H44.8535V33.4545H48.2456ZM45.8422 31.8864H46.8478V38.125C46.8478 38.4091 46.889 38.6222 46.9714 38.7642C47.0566 38.9034 47.1646 38.9972 47.2953 39.0455C47.4288 39.0909 47.5694 39.1136 47.7172 39.1136C47.8279 39.1136 47.9189 39.108 47.9899 39.0966C48.0609 39.0824 48.1177 39.071 48.1603 39.0625L48.3649 39.9659C48.2967 39.9915 48.2015 40.017 48.0794 40.0426C47.9572 40.071 47.8024 40.0852 47.6149 40.0852C47.3308 40.0852 47.0524 40.0241 46.7797 39.902C46.5098 39.7798 46.2853 39.5938 46.1064 39.3438C45.9302 39.0938 45.8422 38.7784 45.8422 38.3977V31.8864ZM49.7583 40V33.4545H50.764V40H49.7583ZM50.2697 32.3636C50.0737 32.3636 49.9047 32.2969 49.7626 32.1634C49.6234 32.0298 49.5538 31.8693 49.5538 31.6818C49.5538 31.4943 49.6234 31.3338 49.7626 31.2003C49.9047 31.0668 50.0737 31 50.2697 31C50.4657 31 50.6333 31.0668 50.7725 31.2003C50.9146 31.3338 50.9856 31.4943 50.9856 31.6818C50.9856 31.8693 50.9146 32.0298 50.7725 32.1634C50.6333 32.2969 50.4657 32.3636 50.2697 32.3636ZM55.2651 40.1364C54.6515 40.1364 54.123 39.9915 53.6799 39.7017C53.2367 39.4119 52.8958 39.0128 52.6571 38.5043C52.4185 37.9957 52.2992 37.4148 52.2992 36.7614C52.2992 36.0966 52.4213 35.5099 52.6657 35.0014C52.9128 34.4901 53.2566 34.0909 53.6969 33.804C54.1401 33.5142 54.6571 33.3693 55.248 33.3693C55.7083 33.3693 56.123 33.4545 56.4924 33.625C56.8617 33.7955 57.1642 34.0341 57.4 34.3409C57.6358 34.6477 57.7821 35.0057 57.839 35.4148H56.8333C56.7566 35.1165 56.5861 34.8523 56.3219 34.6222C56.0605 34.3892 55.7083 34.2727 55.2651 34.2727C54.873 34.2727 54.5293 34.375 54.2338 34.5795C53.9412 34.7812 53.7125 35.0668 53.5478 35.4361C53.3858 35.8026 53.3049 36.233 53.3049 36.7273C53.3049 37.233 53.3844 37.6733 53.5435 38.0483C53.7054 38.4233 53.9327 38.7145 54.2253 38.9219C54.5208 39.1293 54.8674 39.233 55.2651 39.233C55.5265 39.233 55.7637 39.1875 55.9767 39.0966C56.1898 39.0057 56.3702 38.875 56.5179 38.7045C56.6657 38.5341 56.7708 38.3295 56.8333 38.0909H57.839C57.7821 38.4773 57.6415 38.8253 57.4171 39.1349C57.1955 39.4418 56.9015 39.6861 56.535 39.8679C56.1713 40.0469 55.748 40.1364 55.2651 40.1364ZM63.9455 34.9205L63.0421 35.1761C62.9853 35.0256 62.9015 34.8793 62.7907 34.7372C62.6827 34.5923 62.535 34.473 62.3475 34.3793C62.16 34.2855 61.9199 34.2386 61.6273 34.2386C61.2267 34.2386 60.8929 34.331 60.6259 34.5156C60.3617 34.6974 60.2296 34.929 60.2296 35.2102C60.2296 35.4602 60.3205 35.6577 60.5023 35.8026C60.6841 35.9474 60.9682 36.0682 61.3546 36.1648L62.3262 36.4034C62.9114 36.5455 63.3475 36.7628 63.6344 37.0554C63.9213 37.3452 64.0648 37.7187 64.0648 38.1761C64.0648 38.5511 63.9569 38.8864 63.7409 39.1818C63.5279 39.4773 63.2296 39.7102 62.8461 39.8807C62.4625 40.0511 62.0165 40.1364 61.508 40.1364C60.8404 40.1364 60.2878 39.9915 59.8503 39.7017C59.4128 39.4119 59.1358 38.9886 59.0194 38.4318L59.9739 38.1932C60.0648 38.5455 60.2367 38.8097 60.4895 38.9858C60.7452 39.1619 61.079 39.25 61.4909 39.25C61.9597 39.25 62.3319 39.1506 62.6074 38.9517C62.8858 38.75 63.025 38.5085 63.025 38.2273C63.025 38 62.9455 37.8097 62.7864 37.6562C62.6273 37.5 62.383 37.3835 62.0534 37.3068L60.9625 37.0511C60.3631 36.9091 59.9228 36.6889 59.6415 36.3906C59.3631 36.0895 59.2239 35.7131 59.2239 35.2614C59.2239 34.892 59.3276 34.5653 59.535 34.2812C59.7452 33.9972 60.0307 33.7741 60.3915 33.6122C60.7551 33.4503 61.1671 33.3693 61.6273 33.3693C62.275 33.3693 62.7836 33.5114 63.1529 33.7955C63.525 34.0795 63.7892 34.4545 63.9455 34.9205Z" fill="#A3A3A3"/>
<defs>
<clipPath id="clip0_10_558">
<path d="M29.3594 8H47.3594V24H29.3594V8Z" fill="white"/>
</clipPath>
</defs>
</svg>
